<svg width="18" height="14" viewBox="0 0 18 14" fill="none" xmlns="http://www.w3.org/2000/svg">
<path d="M17.519 7.1577C15.6288 11.1395 12.7716 13.1433 8.94139 13.1433C5.10916 13.1433 2.25393 11.1395 0.363733 7.1557C0.287917 6.99516 0.248596 6.81982 0.248596 6.64228C0.248596 6.46474 0.287917 6.2894 0.363733 6.12886C2.25393 2.14709 5.11115 0.143242 8.94139 0.143242C12.7736 0.143242 15.6288 2.14709 17.519 6.13085C17.6726 6.45386 17.6726 6.82871 17.519 7.1577ZM8.94139 1.57883C5.72526 1.57883 3.3705 3.20982 1.7096 6.64328C3.3705 10.0767 5.72526 11.7077 8.94139 11.7077C12.1575 11.7077 14.5123 10.0767 16.1732 6.64328C14.5143 3.20982 12.1595 1.57883 8.94139 1.57883ZM8.86163 10.1525C6.92358 10.1525 5.35241 8.58132 5.35241 6.64328C5.35241 4.70523 6.92358 3.13406 8.86163 3.13406C10.7997 3.13406 12.3709 4.70523 12.3709 6.64328C12.3709 8.58132 10.7997 10.1525 8.86163 10.1525ZM8.86163 4.41014C7.62742 4.41014 6.62849 5.40907 6.62849 6.64328C6.62849 7.87749 7.62742 8.87642 8.86163 8.87642C10.0958 8.87642 11.0948 7.87749 11.0948 6.64328C11.0948 5.40907 10.0958 4.41014 8.86163 4.41014Z" fill="white" fill-opacity="0.7"/>
</svg>
