<svg width="28" height="30" viewBox="0 0 28 30" fill="none" xmlns="http://www.w3.org/2000/svg">
<path d="M23.8997 6.85149H19.7994V5.32827C19.7994 4.11632 19.3674 2.95401 18.5985 2.09703C17.8295 1.24005 16.7866 0.758606 15.6991 0.758606H12.9656C11.8781 0.758606 10.8352 1.24005 10.0662 2.09703C9.29728 2.95401 8.86529 4.11632 8.86529 5.32827V6.85149H4.76499C3.67753 6.85149 2.6346 7.33293 1.86564 8.18991C1.09669 9.04689 0.664696 10.2092 0.664696 11.4211V25.1301C0.664696 26.3421 1.09669 27.5044 1.86564 28.3614C2.6346 29.2183 3.67753 29.6998 4.76499 29.6998H23.8997C24.9872 29.6998 26.0301 29.2183 26.7991 28.3614C27.568 27.5044 28 26.3421 28 25.1301V11.4211C28 10.2092 27.568 9.04689 26.7991 8.18991C26.0301 7.33293 24.9872 6.85149 23.8997 6.85149ZM11.5988 5.32827C11.5988 4.92428 11.7428 4.53685 11.9991 4.25119C12.2555 3.96553 12.6031 3.80505 12.9656 3.80505H15.6991C16.0616 3.80505 16.4092 3.96553 16.6656 4.25119C16.9219 4.53685 17.0659 4.92428 17.0659 5.32827V6.85149H11.5988V5.32827ZM25.2665 25.1301C25.2665 25.5341 25.1225 25.9215 24.8662 26.2072C24.6098 26.4929 24.2622 26.6533 23.8997 26.6533H4.76499C4.4025 26.6533 4.05486 26.4929 3.79854 26.2072C3.54222 25.9215 3.39823 25.5341 3.39823 25.1301V17.4379H7.49852V19.0372C7.49852 19.4412 7.64252 19.8287 7.89884 20.1143C8.15516 20.4 8.5028 20.5605 8.86529 20.5605C9.22778 20.5605 9.57542 20.4 9.83174 20.1143C10.0881 19.8287 10.2321 19.4412 10.2321 19.0372V17.4379H18.4326V19.0372C18.4326 19.4412 18.5766 19.8287 18.833 20.1143C19.0893 20.4 19.4369 20.5605 19.7994 20.5605C20.1619 20.5605 20.5095 20.4 20.7659 20.1143C21.0222 19.8287 21.1662 19.4412 21.1662 19.0372V17.4379H25.2665V25.1301ZM25.2665 14.4676H3.39823V11.4211C3.39823 11.0172 3.54222 10.6297 3.79854 10.3441C4.05486 10.0584 4.4025 9.89792 4.76499 9.89792H23.8997C24.2622 9.89792 24.6098 10.0584 24.8662 10.3441C25.1225 10.6297 25.2665 11.0172 25.2665 11.4211V14.4676Z" fill="#FF4E25"/>
</svg>
