<svg width="14" height="16" viewBox="0 0 14 16" fill="none" xmlns="http://www.w3.org/2000/svg">
<path d="M12.87 6.81331H11.6056V2.64831C11.6056 1.33373 10.5402 0.268311 9.22563 0.268311H4.61438C3.2998 0.268311 2.23438 1.33373 2.23438 2.64831V6.81331H0.97C0.640891 6.81331 0.375 7.0792 0.375 7.40831V14.5483C0.375 14.8774 0.640891 15.1433 0.97 15.1433H12.87C13.1991 15.1433 13.465 14.8774 13.465 14.5483V7.40831C13.465 7.0792 13.1991 6.81331 12.87 6.81331ZM7.44063 11.22V12.2055C7.44063 12.2873 7.37369 12.3543 7.29188 12.3543H6.54813C6.46631 12.3543 6.39938 12.2873 6.39938 12.2055V11.22C6.24589 11.1098 6.13133 10.9538 6.07218 10.7743C6.01303 10.5949 6.01235 10.4013 6.07023 10.2214C6.12811 10.0416 6.24157 9.8847 6.39428 9.77343C6.54698 9.66215 6.73106 9.6022 6.92 9.6022C7.10895 9.6022 7.29302 9.66215 7.44573 9.77343C7.59843 9.8847 7.71189 10.0416 7.76977 10.2214C7.82765 10.4013 7.82697 10.5949 7.76782 10.7743C7.70867 10.9538 7.59411 11.1098 7.44063 11.22ZM10.2669 6.81331H3.57313V2.64831C3.57313 2.07376 4.03983 1.60706 4.61438 1.60706H9.22563C9.80017 1.60706 10.2669 2.07376 10.2669 2.64831V6.81331Z" fill="white"/>
</svg>
