<svg width="18" height="18" viewBox="0 0 18 18" fill="none" xmlns="http://www.w3.org/2000/svg">
<path d="M3.375 16.8619H14.625V14.2056C14.6238 13.2197 14.2086 12.2745 13.4704 11.5773C12.7323 10.8802 11.7314 10.488 10.6875 10.4869H7.3125C6.26858 10.488 5.26775 10.8802 4.52958 11.5773C3.79142 12.2745 3.37619 13.2197 3.375 14.2056V16.8619Z" fill="white"/>
<path d="M5.0625 5.70563C5.0625 6.44113 5.29343 7.16011 5.72609 7.77165C6.15875 8.3832 6.7737 8.85984 7.49318 9.1413C8.21267 9.42277 9.00437 9.49641 9.76817 9.35292C10.532 9.20943 11.2336 8.85526 11.7842 8.33518C12.3349 7.8151 12.7099 7.15249 12.8618 6.43112C13.0138 5.70975 12.9358 4.96204 12.6378 4.28252C12.3398 3.60301 11.8351 3.02222 11.1876 2.6136C10.54 2.20498 9.77876 1.98688 9 1.98688C7.95571 1.98688 6.95419 2.37867 6.21577 3.07607C5.47734 3.77347 5.0625 4.71935 5.0625 5.70563Z" fill="white"/>
</svg>
