<svg width="28" height="28" viewBox="0 0 28 28" fill="none" xmlns="http://www.w3.org/2000/svg">
<path fill-rule="evenodd" clip-rule="evenodd" d="M14 2.33331C7.56001 2.33331 2.33334 7.55998 2.33334 14C2.33334 20.44 7.56001 25.6666 14 25.6666C20.44 25.6666 25.6667 20.44 25.6667 14C25.6667 7.55998 20.44 2.33331 14 2.33331ZM8.24834 21.3266C8.75001 20.2766 11.8067 19.25 14 19.25C16.1933 19.25 19.2617 20.2766 19.7517 21.3266C18.165 22.5866 16.17 23.3333 14 23.3333C11.83 23.3333 9.83501 22.5866 8.24834 21.3266ZM14 16.9166C15.7033 16.9166 19.7517 17.605 21.42 19.635C22.61 18.0716 23.3333 16.1233 23.3333 14C23.3333 8.85498 19.145 4.66665 14 4.66665C8.85501 4.66665 4.66668 8.85498 4.66668 14C4.66668 16.1233 5.39001 18.0716 6.58001 19.635C8.24834 17.605 12.2967 16.9166 14 16.9166ZM14 6.99998C11.7367 6.99998 9.91668 8.81998 9.91668 11.0833C9.91668 13.3466 11.7367 15.1666 14 15.1666C16.2633 15.1666 18.0833 13.3466 18.0833 11.0833C18.0833 8.81998 16.2633 6.99998 14 6.99998ZM12.25 11.0833C12.25 12.0516 13.0317 12.8333 14 12.8333C14.9683 12.8333 15.75 12.0516 15.75 11.0833C15.75 10.115 14.9683 9.33331 14 9.33331C13.0317 9.33331 12.25 10.115 12.25 11.0833Z" fill="#FF4E25"/>
</svg>
